<svg xmlns="http://www.w3.org/2000/svg" width="255" height="80" viewBox="0 0 255 80"><path fill="#FFF" d="M46 0h168.92L255 41.104l-39.327 38.863H46V0z"/><g fill="#231F20"><path d="M92.1 34.453l-.782 2.58h-1.715l2.916-9.1h2.118l2.957 9.1h-1.782l-.823-2.58H92.1zm2.606-1.256l-.715-2.24c-.175-.554-.323-1.175-.458-1.702h-.027c-.135.526-.27 1.16-.432 1.7l-.702 2.242h2.336zM98.472 35.492c.364.23 1.08.486 1.674.486.73 0 1.053-.31 1.053-.742 0-.446-.27-.662-1.08-.96-1.284-.43-1.81-1.133-1.81-1.916 0-1.16.958-2.052 2.483-2.052.73 0 1.364.176 1.754.392l-.338 1.16a2.9 2.9 0 0 0-1.39-.377c-.595 0-.918.297-.918.702 0 .418.31.608 1.147.918 1.2.42 1.74 1.026 1.755 1.998 0 1.203-.932 2.066-2.673 2.066-.797 0-1.513-.19-1.998-.46l.338-1.214zM103.898 35.492c.365.23 1.08.486 1.674.486.73 0 1.055-.31 1.055-.742 0-.446-.27-.662-1.08-.96-1.283-.43-1.81-1.133-1.81-1.916 0-1.16.958-2.052 2.483-2.052.73 0 1.363.176 1.756.392l-.338 1.16a2.91 2.91 0 0 0-1.39-.377c-.595 0-.92.297-.92.702 0 .418.312.608 1.15.918 1.2.42 1.74 1.026 1.752 1.998 0 1.203-.932 2.066-2.67 2.066-.798 0-1.515-.19-2-.46l.338-1.214zM112.27 37.18c-1.85 0-3.295-1.27-3.295-3.39 0-2.16 1.418-3.482 3.402-3.482 1.957 0 3.268 1.377 3.268 3.375 0 2.417-1.7 3.497-3.36 3.497h-.015zm.052-1.2c.945 0 1.607-.92 1.607-2.256 0-1.026-.46-2.214-1.596-2.214-1.174 0-1.646 1.147-1.646 2.24 0 1.27.635 2.23 1.62 2.23h.014zM121.637 36.828c-.35.162-1.04.338-1.86.338-2.054 0-3.39-1.322-3.39-3.36 0-1.972 1.35-3.498 3.658-3.498.607 0 1.23.135 1.605.297l-.297 1.255c-.27-.135-.66-.256-1.256-.256-1.27 0-2.023.93-2.01 2.133 0 1.35.876 2.12 2.01 2.12.567 0 .985-.122 1.31-.258l.23 1.228zM123.488 29.512c-.555 0-.918-.405-.918-.89 0-.514.377-.905.93-.905.568 0 .918.392.932.904 0 .487-.363.892-.932.892h-.012zm-.824 7.52v-6.576h1.66v6.575h-1.66zM131.02 35.45c0 .596.027 1.177.107 1.58h-1.498l-.122-.728h-.04c-.392.513-1.08.877-1.944.877-1.32 0-2.064-.96-2.064-1.958 0-1.647 1.475-2.498 3.9-2.484v-.108c0-.432-.177-1.147-1.337-1.147-.646 0-1.32.202-1.77.486l-.324-1.08c.485-.298 1.337-.582 2.375-.582 2.105 0 2.713 1.336 2.713 2.78v2.363h.002zm-1.62-1.632c-1.176-.014-2.295.23-2.295 1.23 0 .647.418.944.943.944a1.37 1.37 0 0 0 1.312-.904c.04-.122.04-.244.04-.365v-.905zM134.396 28.77v1.687h1.578V31.7h-1.578v2.888c0 .81.215 1.215.85 1.215.297 0 .46-.014.648-.067l.024 1.255c-.244.097-.688.177-1.203.177-.618 0-1.116-.202-1.43-.54-.365-.378-.527-.985-.527-1.85V31.7h-.932v-1.242h.932v-1.23l1.638-.46zM137.852 29.512c-.555 0-.918-.405-.918-.89 0-.514.377-.905.93-.905.568 0 .92.392.935.904 0 .487-.36.892-.936.892h-.012zm-.825 7.52v-6.576h1.66v6.575h-1.66zM143.156 37.18c-1.85 0-3.293-1.27-3.293-3.39 0-2.16 1.416-3.482 3.4-3.482 1.96 0 3.268 1.377 3.268 3.375 0 2.417-1.7 3.497-3.36 3.497h-.014zm.055-1.2c.946 0 1.606-.92 1.606-2.256 0-1.026-.46-2.214-1.592-2.214-1.18 0-1.648 1.147-1.648 2.24 0 1.27.635 2.23 1.62 2.23h.015zM147.69 32.414c0-.756-.024-1.39-.052-1.958h1.44l.082.986h.04c.298-.513 1.013-1.134 2.105-1.134 1.146 0 2.336.743 2.336 2.822v3.9h-1.66v-3.71c0-.946-.352-1.662-1.255-1.662-.662 0-1.12.473-1.297.972-.056.135-.08.337-.08.526v3.875h-1.662v-4.616h.005zM157.992 37.03V31.7h-.89v-1.242h.89v-.283c0-.85.23-1.7.797-2.24.485-.46 1.147-.635 1.714-.635.445 0 .797.08 1.053.162l-.104 1.282a2.03 2.03 0 0 0-.72-.122c-.82 0-1.094.688-1.094 1.5v.336h1.444v1.242h-1.432v5.333h-1.66zM164.635 37.18c-1.85 0-3.293-1.27-3.293-3.39 0-2.16 1.416-3.482 3.4-3.482 1.96 0 3.268 1.377 3.268 3.375 0 2.417-1.7 3.497-3.36 3.497h-.015zm.054-1.2c.94 0 1.603-.92 1.603-2.256 0-1.026-.46-2.214-1.592-2.214-1.177 0-1.645 1.147-1.645 2.24 0 1.27.635 2.23 1.62 2.23h.014zM169.17 32.576c0-.89-.012-1.54-.053-2.12h1.43l.068 1.242h.04c.325-.918 1.095-1.39 1.81-1.39.162 0 .256.013.39.04V31.9a2.638 2.638 0 0 0-.497-.04c-.78 0-1.338.5-1.483 1.255-.022.148-.04.324-.04.5v3.416h-1.66l-.005-4.454zM96.798 51.762c-.392.188-1.256.404-2.362.404-2.89 0-4.644-1.81-4.644-4.576 0-2.997 2.092-4.793 4.873-4.793 1.094 0 1.862.217 2.2.393l-.35 1.322a4.495 4.495 0 0 0-1.783-.35c-1.85 0-3.186 1.158-3.186 3.347 0 1.997 1.16 3.266 3.172 3.266.66 0 1.363-.135 1.81-.32l.27 1.306zM100.606 52.18c-1.85 0-3.294-1.27-3.294-3.39 0-2.16 1.417-3.48 3.4-3.48 1.96 0 3.268 1.376 3.268 3.374 0 2.416-1.7 3.496-3.36 3.496h-.014zm.054-1.2c.946 0 1.606-.92 1.606-2.255 0-1.024-.46-2.215-1.592-2.215-1.175 0-1.647 1.147-1.647 2.24 0 1.27.635 2.23 1.62 2.23h.013zM105.14 47.414c0-.756-.024-1.39-.052-1.957h1.418l.08.973h.04c.312-.514.905-1.12 2.026-1.12.863 0 1.54.484 1.822 1.214h.024c.23-.36.5-.635.797-.82.38-.26.797-.395 1.35-.395 1.08 0 2.19.74 2.19 2.85v3.875h-1.62V48.4c0-1.094-.38-1.74-1.176-1.74-.567 0-.985.404-1.16.877a1.73 1.73 0 0 0-.08.553v3.942h-1.622v-3.808c0-.918-.365-1.565-1.133-1.565-.62 0-1.04.484-1.203.93-.053.178-.08.365-.08.555v3.89h-1.62v-4.62zM116.387 47.645c0-.865-.027-1.563-.055-2.188h1.46l.08 1.014h.026c.485-.743 1.256-1.16 2.254-1.16 1.514 0 2.768 1.296 2.768 3.35 0 2.376-1.498 3.52-2.996 3.52-.824 0-1.512-.35-1.85-.876h-.027v3.4h-1.66v-7.06zm1.66 1.632c0 .162.014.31.04.46.177.674.757 1.16 1.472 1.16 1.052 0 1.673-.878 1.673-2.175 0-1.16-.565-2.104-1.633-2.104-.688 0-1.322.5-1.498 1.23-.026.134-.055.28-.055.417v1.012zM129.97 50.06c0 .783.024 1.435.052 1.975h-1.44l-.082-.985h-.04c-.284.46-.935 1.137-2.12 1.137-1.188 0-2.28-.72-2.28-2.863v-3.86h1.66v3.578c0 1.094.353 1.796 1.228 1.796.677 0 1.106-.46 1.27-.893.07-.135.096-.322.096-.514v-3.97h1.662v4.605h-.004v-.004h-.003zM133.465 43.77v1.688h1.578V46.7h-1.578v2.89c0 .81.215 1.215.85 1.215.297 0 .46-.015.648-.068l.027 1.26c-.244.093-.69.174-1.203.174-.62 0-1.12-.2-1.43-.54-.365-.377-.527-.982-.527-1.852v-3.074h-.932V45.46h.932v-1.23l1.635-.46zM136.92 44.512c-.553 0-.918-.404-.918-.89 0-.515.38-.906.932-.906.566 0 .918.392.935.905 0 .485-.366.892-.936.892h-.014zm-.824 7.52v-6.575h1.662v6.574h-1.662zM139.35 47.414c0-.756-.024-1.39-.055-1.957h1.445l.08.984h.04c.298-.51 1.013-1.132 2.105-1.132 1.148 0 2.338.74 2.338 2.818v3.898h-1.66V48.31c0-.94-.354-1.657-1.256-1.657-.662 0-1.12.474-1.297.973a1.53 1.53 0 0 0-.082.525v3.874h-1.658v-4.61zM152.822 51.072c0 1.378-.283 2.363-.973 2.984-.678.604-1.637.795-2.538.795-.838 0-1.73-.187-2.295-.524l.362-1.256c.417.242 1.118.5 1.915.5 1.08 0 1.894-.567 1.894-1.984v-.566h-.028c-.38.58-1.04.975-1.918.975-1.633 0-2.793-1.354-2.793-3.217 0-2.156 1.405-3.47 2.983-3.47 1.014 0 1.594.486 1.9 1.026h.027l.064-.877h1.445c-.028.445-.056.984-.056 1.89v3.728l.008-.003zm-1.66-2.983c0-.162-.014-.313-.055-.445-.176-.605-.646-1.064-1.353-1.064-.932 0-1.616.813-1.616 2.147 0 1.12.563 2.023 1.604 2.023.62 0 1.16-.404 1.35-1.014.057-.16.068-.394.068-.582l.002-1.065zM164.742 48.318c-.053-1.174-.12-2.578-.107-3.82h-.04a47.874 47.874 0 0 1-1.08 3.482l-1.337 3.94h-1.27l-1.215-3.89a45.1 45.1 0 0 1-.918-3.536h-.027c-.04 1.188-.094 2.633-.16 3.875l-.203 3.654h-1.553l.607-9.098h2.187l1.188 3.657c.324 1.065.607 2.146.838 3.16h.04a48.51 48.51 0 0 1 .903-3.175l1.256-3.646h2.16l.527 9.1h-1.622l-.176-3.704zM173.113 50.452c0 .594.025 1.174.107 1.58h-1.498l-.12-.73h-.042c-.396.513-1.08.878-1.945.878-1.322 0-2.064-.96-2.064-1.957 0-1.646 1.472-2.498 3.9-2.484v-.11c0-.432-.173-1.147-1.335-1.147-.648 0-1.322.203-1.768.486l-.324-1.08c.483-.298 1.336-.58 2.375-.58 2.104 0 2.715 1.335 2.715 2.78v2.362zm-1.62-1.634c-1.175-.014-2.296.23-2.296 1.23 0 .645.418.944.945.944.676 0 1.146-.434 1.31-.905.04-.12.04-.24.04-.364v-.905zM179.498 51.83c-.352.16-1.04.336-1.863.336-2.053 0-3.39-1.323-3.39-3.36 0-1.972 1.35-3.497 3.66-3.497.606 0 1.228.134 1.606.296l-.3 1.256c-.27-.135-.66-.256-1.255-.256-1.27 0-2.022.934-2.015 2.135 0 1.35.88 2.118 2.015 2.118.563 0 .983-.12 1.312-.256l.23 1.227zM180.523 42.434h1.662v3.914h.022a2.18 2.18 0 0 1 .824-.742c.34-.188.73-.297 1.147-.297 1.12 0 2.295.74 2.295 2.85v3.875h-1.662v-3.7c0-.94-.35-1.673-1.268-1.673-.648 0-1.107.432-1.297.932a1.508 1.508 0 0 0-.066.5v3.94h-1.663v-9.6h.006zM188.867 44.512c-.553 0-.918-.404-.918-.89 0-.515.378-.906.93-.906.567 0 .92.392.933.905 0 .485-.362.892-.932.892h-.013zm-.824 7.52v-6.575h1.662v6.574h-1.662zM191.297 47.414c0-.756-.027-1.39-.055-1.957h1.445l.08.984h.04c.298-.51 1.013-1.132 2.105-1.132 1.146 0 2.336.74 2.336 2.818v3.898h-1.66V48.31c0-.94-.354-1.657-1.256-1.657-.662 0-1.12.474-1.295.973-.057.14-.082.338-.082.525v3.874h-1.66l.002-4.61zM199.99 49.21c.04 1.188.973 1.7 2.025 1.7.77 0 1.31-.12 1.82-.297l.243 1.135c-.565.243-1.354.418-2.295.418-2.138 0-3.392-1.31-3.392-3.32 0-1.822 1.106-3.537 3.214-3.537 2.136 0 2.834 1.755 2.834 3.198 0 .31-.024.555-.053.702h-4.395zm2.89-1.16c.013-.608-.257-1.606-1.364-1.606-1.022 0-1.457.934-1.522 1.605h2.885zM205.58 47.576c0-.89-.014-1.54-.055-2.12h1.432l.068 1.243h.04c.323-.92 1.093-1.392 1.808-1.392.162 0 .258.012.393.04V46.9a2.732 2.732 0 0 0-.5-.04c-.783 0-1.336.5-1.48 1.256-.028.147-.042.323-.042.5v3.415h-1.66l-.004-4.454zM211.533 45.457l1.174 3.523c.137.4.285.9.38 1.27h.04c.094-.365.215-.865.35-1.283l1.027-3.51h1.768l-1.646 4.48c-.903 2.457-1.512 3.552-2.28 4.227-.662.566-1.337.783-1.742.837l-.377-1.39c.282-.067.62-.216.957-.46.312-.2.688-.594.918-1.04.057-.12.098-.214.098-.296a.866.866 0 0 0-.082-.323l-2.416-6.033h1.83z"/></g><linearGradient id="a" gradientUnits="userSpaceOnUse" x1="1311.97" y1="395.179" x2="1362.882" y2="344.267" gradientTransform="rotate(45 197.135 -1723.75)"><stop offset="0" stop-color="#66b9e2"/><stop offset=".134" stop-color="#60b7e1"/><stop offset=".31" stop-color="#50b0de"/><stop offset=".509" stop-color="#35a4d9"/><stop offset=".723" stop-color="#0f95d2"/><stop offset=".8" stop-color="#008ecf"/></linearGradient><path fill="url(#a)" d="M46 76L10 40 46 4l36 36z"/><circle fill="#FFFFFE" cx="46" cy="40" r="22.072"/><linearGradient id="b" gradientUnits="userSpaceOnUse" x1="934" y1="-775.865" x2="934" y2="-734.782" gradientTransform="matrix(1 0 0 -1 -888 -716)"><stop offset="0" stop-color="#76bfe4"/><stop offset=".123" stop-color="#70bde3"/><stop offset=".283" stop-color="#60b6e0"/><stop offset=".464" stop-color="#45abdb"/><stop offset=".66" stop-color="#1f9bd5"/><stop offset=".8" stop-color="#008ecf"/></linearGradient><circle fill="url(#b)" cx="46" cy="40" r="19.865"/><g fill="#FFFFFE"><path d="M34.434 43.867c-.203.17-.387.322-.547.457-.162.14-.38.275-.65.41a4.12 4.12 0 0 1-.777.293c-.252.062-.604.1-1.057.1-.844 0-1.545-.283-2.102-.852-.558-.566-.835-1.28-.835-2.146 0-.714.14-1.282.424-1.722.282-.438.69-.783 1.222-1.04.54-.26 1.18-.44 1.928-.544.748-.102 1.55-.182 2.412-.238v-.05c0-.528-.195-.892-.582-1.093-.39-.203-.97-.303-1.746-.303-.35 0-.76.064-1.23.193a9.71 9.71 0 0 0-1.375.492h-.255V35.51c.295-.086.77-.186 1.432-.303a11.357 11.357 0 0 1 1.992-.176c1.647 0 2.85.276 3.6.825.753.547 1.13 1.385 1.13 2.51v6.514h-2.984v-1.013h-.002zm0-1.49v-1.982c-.502.05-.906.096-1.215.13a3.91 3.91 0 0 0-.913.218c-.26.09-.46.228-.605.41-.143.184-.215.43-.215.73 0 .447.12.752.36.922.237.166.59.246 1.06.246.258 0 .52-.058.793-.175.27-.115.513-.285.734-.498zM43.967 45.127c-.79 0-1.516-.1-2.172-.3a4.582 4.582 0 0 1-1.71-.92 4.18 4.18 0 0 1-1.118-1.558c-.267-.628-.4-1.366-.4-2.22 0-.915.145-1.692.436-2.335.29-.64.682-1.166 1.178-1.582a4.62 4.62 0 0 1 1.685-.88 7.148 7.148 0 0 1 2.018-.286 7.092 7.092 0 0 1 3.184.768v2.56h-.386a6.572 6.572 0 0 0-.44-.374 4.116 4.116 0 0 0-.567-.376c-.215-.12-.46-.22-.732-.303a3.173 3.173 0 0 0-.913-.122c-.764 0-1.354.264-1.77.795-.42.53-.628 1.24-.628 2.137 0 .957.222 1.674.67 2.143.446.47 1.038.707 1.778.707.375 0 .705-.045.99-.13a3.123 3.123 0 0 0 1.246-.672c.143-.124.266-.24.367-.34h.386v2.55a29.3 29.3 0 0 0-.594.256 5.334 5.334 0 0 1-.686.234c-.29.08-.562.143-.816.184-.253.042-.59.065-1.003.065zM60.076 44.88V40.1c0-.47-.01-.87-.025-1.193-.017-.322-.067-.588-.153-.793a.864.864 0 0 0-.398-.447c-.18-.093-.433-.14-.76-.14-.226 0-.452.05-.673.145a4.8 4.8 0 0 0-.73.426v6.785h-2.983V40.1c0-.465-.01-.86-.03-1.19-.02-.325-.07-.59-.157-.796a.864.864 0 0 0-.398-.447c-.18-.093-.43-.14-.75-.14-.243 0-.483.056-.718.17a5.225 5.225 0 0 0-.684.4v6.786h-2.984v-9.56h2.984v1.054a7.986 7.986 0 0 1 1.38-.97 3.003 3.003 0 0 1 1.454-.353c.586 0 1.1.142 1.54.42.444.278.782.692 1.015 1.243.574-.533 1.115-.943 1.623-1.23.508-.287 1.023-.432 1.545-.432.443 0 .84.073 1.19.216.355.143.65.354.896.64.27.306.468.67.6 1.093.136.423.202.976.202 1.655v6.227h-2.986z"/></g></svg>